<?xml version="1.0" encoding="utf-8"?>
<!-- Generator: Adobe Illustrator 22.0.1, SVG Export Plug-In . SVG Version: 6.00 Build 0)  -->
<svg version="1.1" id="Calque_1" xmlns="http://www.w3.org/2000/svg" xmlns:xlink="http://www.w3.org/1999/xlink" x="0px" y="0px"
	 viewBox="0 0 431 279" style="enable-background:new 0 0 431 279;" xml:space="preserve">
<style type="text/css">
	.st0{fill:#252525;}
	.st1{opacity:0.253;fill:none;stroke:#252525;stroke-linecap:square;enable-background:new    ;}
	.st2{fill:none;stroke:#5E091C;stroke-width:22;}
	.st3{fill:none;stroke:#910F2B;stroke-width:22;}
	.st4{fill:none;stroke:#C5143A;stroke-width:22;}
	.st5{fill:#575757;}
</style>
<title>Text</title>
<desc>Created with Sketch.</desc>
<g id="Pages">
	<g id="Top-3-functions" transform="translate(228.000000, 1396.000000)">
		<g id="Text" transform="translate(21.000000, 134.000000)">
			<g id="Group-18">
				<g id="Group-14" transform="translate(227.000000, 25.000000)">
					<path id="_x32_9_x25_" class="st0" d="M-211.5-1499v-3.9l9.7-10.4c1.4-1.6,2.4-2.9,3-4.1s0.9-2.1,0.9-3.1c0-1.3-0.3-2.3-1-3.1
						s-1.6-1.2-2.9-1.2c-1.4,0-2.4,0.5-3.1,1.4s-1.1,2.2-1.1,3.7h-5.8l0-0.1c-0.1-2.7,0.8-5,2.7-6.8s4.3-2.8,7.4-2.8
						c3.1,0,5.5,0.8,7.3,2.4s2.6,3.7,2.6,6.4c0,1.8-0.5,3.5-1.5,5s-2.6,3.5-4.9,6l-5.3,5.8l0,0.1h7.8l0.2-3h4.6v7.5H-211.5z
						 M-179.5-1503.2c1.6,0,2.9-0.6,3.9-1.8s1.5-3.1,1.5-5.5v-0.5c-0.7,0.9-1.5,1.5-2.4,2s-1.9,0.7-3,0.7c-2.8,0-5-0.9-6.6-2.7
						s-2.4-4.3-2.4-7.6c0-3,0.9-5.6,2.8-7.6s4.3-3.1,7.2-3.1c3,0,5.5,1,7.4,3.1s2.9,5,2.9,8.8v6.5c0,3.9-1.1,6.9-3.2,9
						s-4.8,3.2-8.2,3.2c-1,0-2.1-0.1-3.2-0.3s-2.1-0.5-3-0.9l0.7-4.3c0.9,0.3,1.8,0.6,2.7,0.7S-180.6-1503.2-179.5-1503.2z
						 M-178.5-1512.7c1,0,1.9-0.2,2.6-0.6s1.3-0.9,1.8-1.5v-3.2c0-2.2-0.4-3.8-1.1-5s-1.8-1.7-3.1-1.7c-1.2,0-2.2,0.6-2.9,1.8
						s-1.1,2.6-1.1,4.3c0,1.8,0.3,3.2,1,4.3S-179.8-1512.7-178.5-1512.7z M-165.4-1523.1c0-1.8,0.6-3.2,1.7-4.4s2.7-1.8,4.8-1.8
						c2.1,0,3.7,0.6,4.8,1.8s1.7,2.6,1.7,4.4v1.6c0,1.8-0.6,3.2-1.7,4.4s-2.7,1.7-4.8,1.7c-2.1,0-3.7-0.6-4.8-1.7s-1.7-2.6-1.7-4.4
						V-1523.1z M-161.4-1521.5c0,0.8,0.2,1.5,0.7,2s1.1,0.8,1.9,0.8c0.8,0,1.4-0.3,1.8-0.8s0.7-1.2,0.7-2v-1.6c0-0.8-0.2-1.5-0.7-2
						s-1.1-0.8-1.9-0.8s-1.4,0.3-1.9,0.8s-0.6,1.2-0.6,2V-1521.5z M-151.1-1506.3c0-1.8,0.6-3.2,1.7-4.4s2.7-1.8,4.8-1.8
						c2.1,0,3.6,0.6,4.8,1.8s1.7,2.6,1.7,4.4v1.6c0,1.8-0.6,3.2-1.7,4.4s-2.7,1.7-4.8,1.7c-2.1,0-3.7-0.6-4.8-1.8s-1.7-2.6-1.7-4.4
						V-1506.3z M-147.1-1504.7c0,0.8,0.2,1.4,0.7,2s1.1,0.8,1.9,0.8c0.9,0,1.5-0.3,1.9-0.8s0.6-1.2,0.6-2.1v-1.6
						c0-0.8-0.2-1.4-0.7-2s-1.1-0.8-1.9-0.8c-0.8,0-1.4,0.3-1.9,0.8s-0.6,1.2-0.6,2V-1504.7z M-157.2-1501.2l-2.9-1.5l14.6-23.3
						l2.9,1.5L-157.2-1501.2z"/>
					<path id="Line-2" class="st1" d="M-249-1488.5l18-11.5"/>
					<ellipse id="Oval" class="st0" cx="-229.5" cy="-1501.6" rx="2.5" ry="2.4"/>
				</g>
				<g id="Group-16" transform="translate(110.000000, 150.000000)">
					<path id="_x32_8_x25_" class="st0" d="M-248.5-1454v-3.9l9.7-10.4c1.4-1.6,2.4-2.9,3-4.1s0.9-2.1,0.9-3.1c0-1.3-0.3-2.3-1-3.1
						s-1.6-1.2-2.9-1.2c-1.4,0-2.4,0.5-3.1,1.4s-1.1,2.2-1.1,3.7h-5.8l0-0.1c-0.1-2.7,0.8-5,2.7-6.8s4.3-2.8,7.4-2.8
						c3.1,0,5.5,0.8,7.3,2.4s2.6,3.7,2.6,6.4c0,1.8-0.5,3.5-1.5,5s-2.6,3.5-4.9,6l-5.3,5.8l0,0.1h7.8l0.2-3h4.6v7.5H-248.5z
						 M-205.7-1475.9c0,1.5-0.4,2.8-1.2,4s-1.9,2-3.3,2.7c1.6,0.7,2.8,1.6,3.8,2.9s1.4,2.7,1.4,4.3c0,2.8-0.9,4.9-2.8,6.4
						s-4.3,2.2-7.3,2.2c-3,0-5.5-0.7-7.4-2.2s-2.8-3.6-2.8-6.4c0-1.6,0.5-3,1.4-4.3s2.2-2.2,3.7-2.9c-1.4-0.6-2.5-1.5-3.3-2.7
						s-1.2-2.5-1.2-4c0-2.7,0.9-4.7,2.6-6.2s4-2.2,6.9-2.2s5.1,0.7,6.9,2.2S-205.7-1478.6-205.7-1475.9z M-211-1462.6
						c0-1.3-0.4-2.4-1.2-3.2s-1.8-1.2-3-1.2s-2.2,0.4-3,1.2s-1.1,1.9-1.1,3.2c0,1.4,0.4,2.4,1.1,3.2s1.8,1.2,3.1,1.2
						c1.2,0,2.3-0.4,3-1.2S-211-1461.2-211-1462.6z M-211.7-1475.7c0-1.2-0.3-2.2-1-2.9s-1.5-1.1-2.6-1.1c-1.1,0-1.9,0.4-2.6,1.1
						s-0.9,1.7-0.9,2.9c0,1.2,0.3,2.2,0.9,3s1.5,1.1,2.6,1.1c1.1,0,1.9-0.4,2.6-1.1S-211.7-1474.4-211.7-1475.7z M-202.9-1478.1
						c0-1.8,0.6-3.2,1.7-4.4s2.7-1.8,4.8-1.8c2.1,0,3.7,0.6,4.8,1.8s1.7,2.6,1.7,4.4v1.6c0,1.8-0.6,3.2-1.7,4.4s-2.7,1.7-4.8,1.7
						c-2.1,0-3.7-0.6-4.8-1.7s-1.7-2.6-1.7-4.4V-1478.1z M-198.9-1476.5c0,0.8,0.2,1.5,0.7,2s1.1,0.8,1.9,0.8c0.8,0,1.4-0.3,1.8-0.8
						s0.7-1.2,0.7-2v-1.6c0-0.8-0.2-1.5-0.7-2s-1.1-0.8-1.9-0.8s-1.4,0.3-1.9,0.8s-0.6,1.2-0.6,2V-1476.5z M-188.6-1461.3
						c0-1.8,0.6-3.2,1.7-4.4s2.7-1.8,4.8-1.8c2.1,0,3.6,0.6,4.8,1.8s1.7,2.6,1.7,4.4v1.6c0,1.8-0.6,3.2-1.7,4.4s-2.7,1.7-4.8,1.7
						c-2.1,0-3.7-0.6-4.8-1.8s-1.7-2.6-1.7-4.4V-1461.3z M-184.7-1459.7c0,0.8,0.2,1.4,0.7,2s1.1,0.8,1.9,0.8c0.9,0,1.5-0.3,1.9-0.8
						s0.6-1.2,0.6-2.1v-1.6c0-0.8-0.2-1.4-0.7-2s-1.1-0.8-1.9-0.8c-0.8,0-1.4,0.3-1.9,0.8s-0.6,1.2-0.6,2V-1459.7z M-194.7-1456.2
						l-2.9-1.5l14.6-23.3l2.9,1.5L-194.7-1456.2z"/>
					<path id="Line-2_1_" class="st1" d="M-234.5-1505.5l15-24"/>
					<ellipse id="Oval-Copy" class="st0" cx="-235.5" cy="-1503.6" rx="2.5" ry="2.4"/>
				</g>
				<g id="Group-17">
					<path id="_x32_4_x25_" class="st0" d="M-247.7-1499v-3.9l9.7-10.4c1.4-1.6,2.4-2.9,3-4.1s0.9-2.1,0.9-3.1c0-1.3-0.3-2.3-1-3.1
						s-1.6-1.2-2.9-1.2c-1.4,0-2.4,0.5-3.1,1.4s-1.1,2.2-1.1,3.7h-5.8l0-0.1c-0.1-2.7,0.8-5,2.7-6.8s4.3-2.8,7.4-2.8
						c3.1,0,5.5,0.8,7.3,2.4s2.6,3.7,2.6,6.4c0,1.8-0.5,3.5-1.5,5s-2.6,3.5-4.9,6l-5.3,5.8l0,0.1h7.8l0.2-3h4.6v7.5H-247.7z
						 M-206.8-1510.1h3.4v4h-3.4v2.9l3.2,0.6v3.6H-216v-3.6l3.2-0.6v-2.9h-12.2l-0.3-2.9l12.4-19.8h6V-1510.1z M-219.6-1510.1h6.9
						v-10.8l-0.1,0l-0.5,0.9L-219.6-1510.1z M-201.3-1523.1c0-1.8,0.6-3.2,1.7-4.4s2.7-1.8,4.8-1.8c2.1,0,3.7,0.6,4.8,1.8
						s1.7,2.6,1.7,4.4v1.6c0,1.8-0.6,3.2-1.7,4.4s-2.7,1.7-4.8,1.7c-2.1,0-3.7-0.6-4.8-1.7s-1.7-2.6-1.7-4.4V-1523.1z
						 M-197.3-1521.5c0,0.8,0.2,1.5,0.7,2s1.1,0.8,1.9,0.8c0.8,0,1.4-0.3,1.8-0.8s0.7-1.2,0.7-2v-1.6c0-0.8-0.2-1.5-0.7-2
						s-1.1-0.8-1.9-0.8s-1.4,0.3-1.9,0.8s-0.6,1.2-0.6,2V-1521.5z M-187-1506.3c0-1.8,0.6-3.2,1.7-4.4s2.7-1.8,4.8-1.8
						c2.1,0,3.6,0.6,4.8,1.8s1.7,2.6,1.7,4.4v1.6c0,1.8-0.6,3.2-1.7,4.4s-2.7,1.7-4.8,1.7c-2.1,0-3.7-0.6-4.8-1.8s-1.7-2.6-1.7-4.4
						V-1506.3z M-183-1504.7c0,0.8,0.2,1.4,0.7,2s1.1,0.8,1.9,0.8c0.9,0,1.5-0.3,1.9-0.8s0.6-1.2,0.6-2.1v-1.6c0-0.8-0.2-1.4-0.7-2
						s-1.1-0.8-1.9-0.8c-0.8,0-1.4,0.3-1.9,0.8s-0.6,1.2-0.6,2V-1504.7z M-193.1-1501.2l-2.9-1.5l14.6-23.3l2.9,1.5L-193.1-1501.2z"
						/>
					<path id="Line-2-Copy" class="st1" d="M-155.5-1497.5l21.7,19.5"/>
					<ellipse id="Oval-Copy_1_" class="st0" cx="-157.5" cy="-1499.6" rx="2.5" ry="2.4"/>
				</g>
			</g>
			<g id="Donut-chart" transform="translate(112.000000, 37.000000)">
				<path id="donut_3" class="st2" d="M-247.3-1462c-7.4-29.1,10-58.8,38.9-66.3c4.4-1.1,8.9-1.7,13.4-1.7"/>
				<path id="donut_2" class="st3" d="M-153-1440.8c-19,23.2-53.1,26.5-76.1,7.3c-8.8-7.3-15.1-17.3-17.9-28.5"/>
				<path id="donut_1" class="st4" d="M-195-1530c30,0,54.3,24.5,54.3,54.6c0,12.7-4.4,25-12.5,34.8"/>
			</g>
		</g>
	</g>
</g>
<g>
	<path class="st5" d="M265.6,76.6V64.5h3.5c1.5,0,2.7,0.5,3.7,1.5c1,1,1.4,2.2,1.4,3.8v1.6c0,1.5-0.5,2.8-1.4,3.8
		c-1,1-2.2,1.5-3.7,1.5H265.6z M266.6,65.4v10.4h2.5c1.2,0,2.2-0.4,3-1.3c0.8-0.8,1.2-1.9,1.2-3.2v-1.6c0-1.3-0.4-2.3-1.2-3.1
		c-0.8-0.8-1.8-1.3-2.9-1.3H266.6z"/>
	<path class="st5" d="M277.6,65.1h-1v-1.4h1V65.1z M277.6,76.6h-1v-9h1V76.6z"/>
	<path class="st5" d="M284.5,68.5l-0.7,0c-0.6,0-1.1,0.2-1.5,0.5s-0.7,0.8-0.9,1.4v6.2h-1v-9h0.9l0.1,1.5v0.1c0.3-0.6,0.6-1,1-1.3
		s1-0.5,1.6-0.5c0.1,0,0.2,0,0.4,0s0.2,0,0.3,0.1L284.5,68.5z"/>
	<path class="st5" d="M289.3,76.8c-1.1,0-2.1-0.4-2.8-1.2s-1.1-1.9-1.1-3.2v-0.5c0-1.3,0.4-2.3,1.1-3.2c0.7-0.8,1.6-1.3,2.7-1.3
		c1.1,0,2,0.3,2.6,1s0.9,1.6,0.9,2.8v0.8h-6.3v0.2c0,1,0.3,1.9,0.8,2.5c0.5,0.7,1.2,1,2.1,1c0.6,0,1.1-0.1,1.6-0.3
		c0.4-0.2,0.8-0.4,1.1-0.7l0.4,0.7c-0.3,0.4-0.8,0.6-1.3,0.8C290.7,76.7,290.1,76.8,289.3,76.8z M289.2,68.3c-0.7,0-1.4,0.3-1.9,0.8
		c-0.5,0.6-0.8,1.3-0.9,2.1l0,0h5.3v-0.2c0-0.8-0.2-1.4-0.7-2S290,68.3,289.2,68.3z"/>
	<path class="st5" d="M298.1,75.9c0.7,0,1.2-0.2,1.7-0.6c0.5-0.4,0.8-0.9,0.8-1.6h0.9l0,0c0,0.8-0.3,1.5-1,2.1s-1.5,0.8-2.4,0.8
		c-1.2,0-2.2-0.4-2.8-1.3c-0.7-0.8-1-1.9-1-3.2V72c0-1.3,0.3-2.4,1-3.2s1.6-1.3,2.8-1.3c1,0,1.8,0.3,2.5,0.9c0.7,0.6,1,1.3,1,2.3
		l0,0h-0.9c0-0.7-0.2-1.3-0.7-1.7s-1.1-0.6-1.8-0.6c-1,0-1.7,0.3-2.1,1s-0.7,1.6-0.7,2.6v0.3c0,1.1,0.2,1.9,0.7,2.6
		S297.1,75.9,298.1,75.9z"/>
	<path class="st5" d="M305.1,65.3v2.3h2v0.8h-2v5.9c0,0.6,0.1,1,0.3,1.2s0.5,0.4,0.9,0.4c0.2,0,0.3,0,0.5,0s0.3,0,0.5-0.1l0.1,0.7
		c-0.2,0.1-0.4,0.1-0.6,0.2s-0.5,0.1-0.7,0.1c-0.6,0-1.1-0.2-1.5-0.6s-0.5-1-0.5-1.9v-5.9h-1.6v-0.8h1.6v-2.3H305.1z"/>
	<path class="st5" d="M312.6,76.8c-1.1,0-2.1-0.4-2.8-1.2s-1.1-1.9-1.1-3.2v-0.5c0-1.3,0.4-2.3,1.1-3.2c0.7-0.8,1.6-1.3,2.7-1.3
		c1.1,0,2,0.3,2.6,1s0.9,1.6,0.9,2.8v0.8h-6.3v0.2c0,1,0.3,1.9,0.8,2.5c0.5,0.7,1.2,1,2.1,1c0.6,0,1.1-0.1,1.6-0.3
		c0.4-0.2,0.8-0.4,1.1-0.7l0.4,0.7c-0.3,0.4-0.8,0.6-1.3,0.8C313.9,76.7,313.3,76.8,312.6,76.8z M312.4,68.3c-0.7,0-1.4,0.3-1.9,0.8
		c-0.5,0.6-0.8,1.3-0.9,2.1l0,0h5.3v-0.2c0-0.8-0.2-1.4-0.7-2S313.2,68.3,312.4,68.3z"/>
	<path class="st5" d="M323.8,75.1c-0.3,0.5-0.7,0.9-1.2,1.2c-0.5,0.3-1.1,0.4-1.7,0.4c-0.9,0-1.7-0.3-2.2-1c-0.5-0.6-0.8-1.6-0.8-3
		v-5.2h1v5.2c0,1.1,0.2,1.9,0.6,2.4c0.4,0.5,0.9,0.7,1.6,0.7c0.8,0,1.4-0.2,1.8-0.5s0.8-0.8,0.9-1.4v-6.4h1v9h-0.9L323.8,75.1z"/>
	<path class="st5" d="M331.5,68.5l-0.7,0c-0.6,0-1.1,0.2-1.5,0.5s-0.7,0.8-0.9,1.4v6.2h-1v-9h0.9l0.1,1.5v0.1c0.3-0.6,0.6-1,1-1.3
		s1-0.5,1.6-0.5c0.1,0,0.2,0,0.4,0s0.2,0,0.3,0.1L331.5,68.5z"/>
	<path class="st5" d="M333.1,76.5l-0.9,2.3h-0.7l0.6-2.3v-1.4h1V76.5z"/>
</g>
<g>
	<path class="st5" d="M113,241.2v5h-1v-12.1h4.2c1.3,0,2.2,0.3,2.9,1s1,1.5,1,2.6c0,1.1-0.3,1.9-1,2.6c-0.7,0.6-1.7,1-2.9,1H113z
		 M113,240.3h3.2c1,0,1.7-0.3,2.2-0.8c0.5-0.5,0.8-1.1,0.8-1.9c0-0.8-0.2-1.4-0.7-1.9s-1.2-0.8-2.2-0.8H113V240.3z"/>
	<path class="st5" d="M126.3,238.1l-0.7,0c-0.6,0-1.1,0.2-1.5,0.5s-0.7,0.8-0.9,1.4v6.2h-1v-9h0.9l0.1,1.5v0.1c0.3-0.6,0.6-1,1-1.3
		s1-0.5,1.6-0.5c0.1,0,0.2,0,0.4,0s0.2,0,0.3,0.1L126.3,238.1z"/>
	<path class="st5" d="M127.3,241.6c0-1.3,0.4-2.4,1.1-3.3c0.7-0.8,1.7-1.3,2.9-1.3c1.2,0,2.2,0.4,2.9,1.3c0.7,0.8,1.1,1.9,1.1,3.3
		v0.3c0,1.3-0.4,2.4-1.1,3.3c-0.7,0.8-1.7,1.3-2.9,1.3c-1.2,0-2.2-0.4-2.9-1.3s-1.1-1.9-1.1-3.3V241.6z M128.3,241.9
		c0,1,0.3,1.9,0.8,2.6c0.5,0.7,1.3,1.1,2.2,1.1c0.9,0,1.7-0.4,2.2-1.1c0.5-0.7,0.8-1.6,0.8-2.6v-0.3c0-1-0.3-1.9-0.8-2.6
		c-0.5-0.7-1.3-1.1-2.2-1.1s-1.7,0.4-2.2,1.1c-0.5,0.7-0.8,1.6-0.8,2.6V241.9z"/>
	<path class="st5" d="M136.9,241.8c0-1.4,0.3-2.6,0.9-3.4c0.6-0.9,1.5-1.3,2.5-1.3c0.6,0,1.2,0.1,1.6,0.4s0.8,0.6,1.1,1.1v-5.3h1
		v12.9h-0.9l-0.1-1.3c-0.3,0.5-0.7,0.8-1.2,1.1c-0.5,0.3-1,0.4-1.7,0.4c-1.1,0-1.9-0.4-2.5-1.2c-0.6-0.8-0.9-1.9-0.9-3.2V241.8z
		 M137.9,242c0,1.1,0.2,2,0.7,2.6s1.1,1,2,1c0.6,0,1.2-0.1,1.6-0.4s0.8-0.7,1-1.2v-4.2c-0.2-0.5-0.5-0.9-1-1.3
		c-0.4-0.3-1-0.5-1.6-0.5c-0.9,0-1.5,0.4-2,1.1c-0.4,0.7-0.7,1.7-0.7,2.8V242z"/>
	<path class="st5" d="M152.6,244.7c-0.3,0.5-0.7,0.9-1.2,1.2c-0.5,0.3-1.1,0.4-1.7,0.4c-0.9,0-1.7-0.3-2.2-1c-0.5-0.6-0.8-1.6-0.8-3
		v-5.2h1v5.2c0,1.1,0.2,1.9,0.6,2.4c0.4,0.5,0.9,0.7,1.6,0.7c0.8,0,1.4-0.2,1.8-0.5s0.8-0.8,0.9-1.4v-6.4h1v9h-0.9L152.6,244.7z"/>
	<path class="st5" d="M157.3,234.7h-1v-1.4h1V234.7z M157.3,246.2h-1v-9h1V246.2z"/>
	<path class="st5" d="M161.6,234.9v2.3h2v0.8h-2v5.9c0,0.6,0.1,1,0.3,1.2s0.5,0.4,0.9,0.4c0.2,0,0.3,0,0.5,0s0.3,0,0.5-0.1l0.1,0.7
		c-0.2,0.1-0.4,0.1-0.6,0.2s-0.5,0.1-0.7,0.1c-0.6,0-1.1-0.2-1.5-0.6s-0.5-1-0.5-1.9V238h-1.6v-0.8h1.6v-2.3H161.6z"/>
	<path class="st5" d="M165.6,247.2h-0.9l5-13.1h0.9L165.6,247.2z"/>
	<path class="st5" d="M181.1,242.4L181.1,242.4c-0.1,1.3-0.5,2.2-1.3,2.9s-1.8,1-3,1c-1.3,0-2.4-0.5-3.3-1.5c-0.8-1-1.2-2.2-1.2-3.8
		v-2c0-1.5,0.4-2.8,1.2-3.8c0.8-1,1.9-1.5,3.3-1.5c1.3,0,2.3,0.3,3.1,1c0.8,0.7,1.2,1.6,1.3,2.9l0,0h-0.9c-0.1-1-0.5-1.8-1-2.3
		c-0.6-0.5-1.3-0.8-2.4-0.8c-1.1,0-1.9,0.4-2.5,1.2c-0.6,0.8-1,1.9-1,3.1v2c0,1.3,0.3,2.3,1,3.2c0.6,0.8,1.5,1.2,2.5,1.2
		c1,0,1.8-0.3,2.4-0.8c0.6-0.5,0.9-1.3,1-2.3H181.1z"/>
	<path class="st5" d="M184.4,238.8c0.3-0.5,0.7-1,1.2-1.3s1.1-0.4,1.7-0.4c0.9,0,1.7,0.3,2.2,0.9c0.5,0.6,0.8,1.5,0.8,2.7v5.5h-1
		v-5.6c0-1-0.2-1.7-0.6-2.1c-0.4-0.4-0.9-0.6-1.6-0.6c-0.7,0-1.2,0.2-1.7,0.5c-0.5,0.4-0.8,0.8-1,1.4v6.3h-1v-12.9h1V238.8z"/>
	<path class="st5" d="M196.2,246.4c-1.1,0-2.1-0.4-2.8-1.2s-1.1-1.9-1.1-3.2v-0.5c0-1.3,0.4-2.3,1.1-3.2c0.7-0.8,1.6-1.3,2.7-1.3
		c1.1,0,2,0.3,2.6,1s0.9,1.6,0.9,2.8v0.8h-6.3v0.2c0,1,0.3,1.9,0.8,2.5c0.5,0.7,1.2,1,2.1,1c0.6,0,1.1-0.1,1.6-0.3
		c0.4-0.2,0.8-0.4,1.1-0.7l0.4,0.7c-0.3,0.4-0.8,0.6-1.3,0.8C197.5,246.3,196.9,246.4,196.2,246.4z M196.1,237.9
		c-0.7,0-1.4,0.3-1.9,0.8c-0.5,0.6-0.8,1.3-0.9,2.1l0,0h5.3v-0.2c0-0.8-0.2-1.4-0.7-2S196.9,237.9,196.1,237.9z"/>
	<path class="st5" d="M202.3,246.2V238h-1.5v-0.8h1.5v-1.3c0-0.9,0.2-1.6,0.7-2.1c0.5-0.5,1.1-0.7,1.9-0.7c0.2,0,0.4,0,0.6,0
		c0.2,0,0.4,0.1,0.6,0.1l-0.1,0.8c-0.1,0-0.3-0.1-0.4-0.1c-0.1,0-0.3,0-0.5,0c-0.5,0-1,0.2-1.2,0.5c-0.3,0.3-0.4,0.8-0.4,1.4v1.3
		h2.1v0.8h-2.1v8.2H202.3z"/>
</g>
<g>
	<path class="st5" d="M44.2,47v5h-1V40h4.2c1.3,0,2.2,0.3,2.9,1c0.7,0.6,1,1.5,1,2.6c0,1.1-0.3,1.9-1,2.6c-0.7,0.6-1.7,1-2.9,1H44.2
		z M44.2,46.2h3.2c1,0,1.7-0.3,2.2-0.8c0.5-0.5,0.8-1.1,0.8-1.9c0-0.8-0.2-1.4-0.7-1.9c-0.5-0.5-1.2-0.8-2.2-0.8h-3.2V46.2z"/>
	<path class="st5" d="M53.7,52.1V40h3.5c1.5,0,2.7,0.5,3.7,1.5s1.4,2.2,1.4,3.8v1.6c0,1.5-0.5,2.8-1.4,3.8s-2.2,1.5-3.7,1.5H53.7z
		 M54.7,40.8v10.4h2.5c1.2,0,2.2-0.4,3-1.3c0.8-0.8,1.2-1.9,1.2-3.2v-1.6c0-1.3-0.4-2.3-1.2-3.1s-1.8-1.3-2.9-1.3H54.7z"/>
	<path class="st5" d="M73.5,50.6c-0.3,0.4-0.8,0.8-1.5,1.1c-0.7,0.3-1.6,0.5-2.7,0.5c-1.4,0-2.6-0.5-3.5-1.4c-0.9-1-1.3-2.2-1.3-3.7
		v-2.2c0-1.5,0.4-2.7,1.3-3.7c0.9-0.9,2-1.4,3.3-1.4c1.3,0,2.3,0.3,3.1,1c0.7,0.7,1.2,1.5,1.3,2.5l0,0h-0.9c-0.1-0.8-0.5-1.5-1-2
		c-0.5-0.5-1.3-0.8-2.4-0.8c-1.1,0-2,0.4-2.6,1.2c-0.7,0.8-1,1.8-1,3v2.2c0,1.3,0.4,2.3,1.1,3.1s1.6,1.2,2.8,1.2
		c0.8,0,1.5-0.1,2-0.3c0.6-0.2,0.9-0.5,1.1-0.7v-3.1h-3.2v-0.8h4.2V50.6z"/>
</g>
<g>
	<path class="st5" d="M273.9,95.6L273.9,95.6c-0.1,1.3-0.5,2.2-1.3,2.9c-0.8,0.7-1.8,1-3,1c-1.3,0-2.4-0.5-3.3-1.5
		c-0.8-1-1.2-2.2-1.2-3.8v-2c0-1.5,0.4-2.8,1.2-3.8c0.8-1,1.9-1.5,3.3-1.5c1.3,0,2.3,0.3,3.1,1c0.8,0.7,1.2,1.6,1.3,2.9l0,0H273
		c-0.1-1-0.5-1.8-1-2.3c-0.6-0.5-1.3-0.8-2.4-0.8c-1.1,0-1.9,0.4-2.5,1.2c-0.6,0.8-1,1.9-1,3.1v2c0,1.3,0.3,2.3,1,3.2
		c0.6,0.8,1.5,1.2,2.5,1.2c1,0,1.8-0.3,2.4-0.8c0.6-0.5,0.9-1.3,1-2.3H273.9z"/>
	<path class="st5" d="M277.2,92c0.3-0.5,0.7-1,1.2-1.3s1.1-0.4,1.7-0.4c0.9,0,1.7,0.3,2.2,0.9c0.5,0.6,0.8,1.5,0.8,2.7v5.5h-1v-5.6
		c0-1-0.2-1.7-0.6-2.1c-0.4-0.4-0.9-0.6-1.6-0.6c-0.7,0-1.2,0.2-1.7,0.5c-0.5,0.4-0.8,0.8-1,1.4v6.3h-1V86.5h1V92z"/>
	<path class="st5" d="M289.1,99.6c-1.1,0-2.1-0.4-2.8-1.2s-1.1-1.9-1.1-3.2v-0.5c0-1.3,0.4-2.3,1.1-3.2c0.7-0.8,1.6-1.3,2.7-1.3
		c1.1,0,2,0.3,2.6,1s0.9,1.6,0.9,2.8v0.8h-6.3v0.2c0,1,0.3,1.9,0.8,2.5c0.5,0.7,1.2,1,2.1,1c0.6,0,1.1-0.1,1.6-0.3
		c0.4-0.2,0.8-0.4,1.1-0.7l0.4,0.7c-0.3,0.4-0.8,0.6-1.3,0.8S289.8,99.6,289.1,99.6z M288.9,91.1c-0.7,0-1.4,0.3-1.9,0.8
		s-0.8,1.3-0.9,2.1l0,0h5.3v-0.2c0-0.8-0.2-1.4-0.7-2C290.3,91.4,289.7,91.1,288.9,91.1z"/>
	<path class="st5" d="M295.2,99.4v-8.2h-1.5v-0.8h1.5v-1.3c0-0.9,0.2-1.6,0.7-2.1s1.1-0.7,1.9-0.7c0.2,0,0.4,0,0.6,0
		s0.4,0.1,0.6,0.1l-0.1,0.8c-0.1,0-0.3-0.1-0.4-0.1c-0.1,0-0.3,0-0.5,0c-0.5,0-1,0.2-1.2,0.5c-0.3,0.3-0.4,0.8-0.4,1.4v1.3h2.1v0.8
		h-2.1v8.2H295.2z"/>
	<path class="st5" d="M303.8,95c0-1.4,0.3-2.6,0.9-3.4c0.6-0.9,1.5-1.3,2.5-1.3c0.6,0,1.2,0.1,1.6,0.4s0.8,0.6,1.1,1.1v-5.3h1v12.9
		h-0.9l-0.1-1.3c-0.3,0.5-0.7,0.8-1.2,1.1s-1,0.4-1.7,0.4c-1.1,0-1.9-0.4-2.5-1.2c-0.6-0.8-0.9-1.9-0.9-3.2V95z M304.8,95.2
		c0,1.1,0.2,2,0.7,2.6c0.4,0.6,1.1,1,2,1c0.6,0,1.2-0.1,1.6-0.4s0.8-0.7,1-1.2v-4.2c-0.2-0.5-0.5-0.9-1-1.3s-1-0.5-1.6-0.5
		c-0.9,0-1.5,0.4-2,1.1c-0.4,0.7-0.7,1.7-0.7,2.8V95.2z"/>
	<path class="st5" d="M317,99.6c-1.1,0-2.1-0.4-2.8-1.2s-1.1-1.9-1.1-3.2v-0.5c0-1.3,0.4-2.3,1.1-3.2c0.7-0.8,1.6-1.3,2.7-1.3
		c1.1,0,2,0.3,2.6,1s0.9,1.6,0.9,2.8v0.8h-6.3v0.2c0,1,0.3,1.9,0.8,2.5c0.5,0.7,1.2,1,2.1,1c0.6,0,1.1-0.1,1.6-0.3
		c0.4-0.2,0.8-0.4,1.1-0.7l0.4,0.7c-0.3,0.4-0.8,0.6-1.3,0.8S317.7,99.6,317,99.6z M316.9,91.1c-0.7,0-1.4,0.3-1.9,0.8
		s-0.8,1.3-0.9,2.1l0,0h5.3v-0.2c0-0.8-0.2-1.4-0.7-2C318.3,91.4,317.7,91.1,316.9,91.1z"/>
	<path class="st5" d="M326.1,95c0-1.4,0.3-2.6,0.9-3.4c0.6-0.9,1.5-1.3,2.5-1.3c0.6,0,1.2,0.1,1.6,0.4s0.8,0.6,1.1,1.1v-5.3h1v12.9
		h-0.9l-0.1-1.3c-0.3,0.5-0.7,0.8-1.2,1.1s-1,0.4-1.7,0.4c-1.1,0-1.9-0.4-2.5-1.2c-0.6-0.8-0.9-1.9-0.9-3.2V95z M327.1,95.2
		c0,1.1,0.2,2,0.7,2.6c0.4,0.6,1.1,1,2,1c0.6,0,1.2-0.1,1.6-0.4s0.8-0.7,1-1.2v-4.2c-0.2-0.5-0.5-0.9-1-1.3s-1-0.5-1.6-0.5
		c-0.9,0-1.5,0.4-2,1.1c-0.4,0.7-0.7,1.7-0.7,2.8V95.2z"/>
	<path class="st5" d="M339.4,99.6c-1.1,0-2.1-0.4-2.8-1.2s-1.1-1.9-1.1-3.2v-0.5c0-1.3,0.4-2.3,1.1-3.2c0.7-0.8,1.6-1.3,2.7-1.3
		c1.1,0,2,0.3,2.6,1s0.9,1.6,0.9,2.8v0.8h-6.3v0.2c0,1,0.3,1.9,0.8,2.5c0.5,0.7,1.2,1,2.1,1c0.6,0,1.1-0.1,1.6-0.3
		c0.4-0.2,0.8-0.4,1.1-0.7l0.4,0.7c-0.3,0.4-0.8,0.6-1.3,0.8S340.1,99.6,339.4,99.6z M339.2,91.1c-0.7,0-1.4,0.3-1.9,0.8
		s-0.8,1.3-0.9,2.1l0,0h5.3v-0.2c0-0.8-0.2-1.4-0.7-2C340.6,91.4,340,91.1,339.2,91.1z M340.4,86.9h1.2l0,0l-2.1,2.2h-0.9
		L340.4,86.9z"/>
	<path class="st5" d="M352,95.2c0,1.3-0.3,2.4-0.9,3.2c-0.6,0.8-1.4,1.2-2.5,1.2c-0.6,0-1.2-0.1-1.7-0.4c-0.5-0.2-0.9-0.6-1.2-1v4.7
		h-1V90.4h0.8l0.1,1.4c0.3-0.5,0.7-0.9,1.2-1.2c0.5-0.3,1-0.4,1.7-0.4c1.1,0,1.9,0.4,2.5,1.3c0.6,0.9,0.9,2,0.9,3.4V95.2z M351,95
		c0-1.1-0.2-2.1-0.7-2.8c-0.5-0.7-1.1-1.1-2-1.1c-0.7,0-1.2,0.2-1.6,0.5c-0.4,0.3-0.7,0.7-0.9,1.2v4.3c0.2,0.5,0.6,0.9,1,1.2
		c0.4,0.3,1,0.4,1.6,0.4c0.9,0,1.5-0.3,2-1s0.7-1.5,0.7-2.6V95z"/>
	<path class="st5" d="M359.9,99.4c-0.1-0.3-0.1-0.6-0.1-0.8s0-0.4,0-0.7c-0.3,0.5-0.8,0.9-1.3,1.2c-0.6,0.3-1.2,0.5-1.9,0.5
		c-0.9,0-1.6-0.2-2-0.7s-0.7-1.1-0.7-1.9c0-0.8,0.4-1.5,1.1-2s1.7-0.7,2.9-0.7h2v-1.1c0-0.6-0.2-1.1-0.6-1.5s-1-0.5-1.7-0.5
		c-0.7,0-1.3,0.2-1.7,0.5c-0.5,0.3-0.7,0.8-0.7,1.3l-0.9,0l0,0c0-0.7,0.3-1.3,0.9-1.8c0.6-0.5,1.5-0.8,2.5-0.8c1,0,1.8,0.3,2.4,0.8
		c0.6,0.5,0.9,1.2,0.9,2.2v4.4c0,0.3,0,0.6,0.1,0.9s0.1,0.6,0.2,0.9H359.9z M356.6,98.7c0.7,0,1.3-0.2,1.9-0.5
		c0.5-0.3,0.9-0.8,1.2-1.3V95h-2c-0.9,0-1.6,0.2-2.2,0.6c-0.5,0.4-0.8,0.9-0.8,1.4c0,0.5,0.2,0.9,0.5,1.2
		C355.6,98.5,356,98.7,356.6,98.7z"/>
	<path class="st5" d="M367.5,91.3l-0.7,0c-0.6,0-1.1,0.2-1.5,0.5c-0.4,0.4-0.7,0.8-0.9,1.4v6.2h-1v-9h0.9l0.1,1.5V92
		c0.3-0.6,0.6-1,1-1.3s1-0.5,1.6-0.5c0.1,0,0.2,0,0.4,0c0.1,0,0.2,0,0.3,0.1L367.5,91.3z"/>
	<path class="st5" d="M371,88.1v2.3h2v0.8h-2v5.9c0,0.6,0.1,1,0.3,1.2c0.2,0.2,0.5,0.4,0.9,0.4c0.2,0,0.3,0,0.5,0
		c0.2,0,0.3,0,0.5-0.1l0.1,0.7c-0.2,0.1-0.4,0.1-0.6,0.2s-0.5,0.1-0.7,0.1c-0.6,0-1.1-0.2-1.5-0.6s-0.5-1-0.5-1.9v-5.9h-1.6v-0.8
		h1.6v-2.3H371z"/>
	<path class="st5" d="M378.4,99.6c-1.1,0-2.1-0.4-2.8-1.2s-1.1-1.9-1.1-3.2v-0.5c0-1.3,0.4-2.3,1.1-3.2c0.7-0.8,1.6-1.3,2.7-1.3
		c1.1,0,2,0.3,2.6,1s0.9,1.6,0.9,2.8v0.8h-6.3v0.2c0,1,0.3,1.9,0.8,2.5c0.5,0.7,1.2,1,2.1,1c0.6,0,1.1-0.1,1.6-0.3
		c0.4-0.2,0.8-0.4,1.1-0.7l0.4,0.7c-0.3,0.4-0.8,0.6-1.3,0.8S379.1,99.6,378.4,99.6z M378.3,91.1c-0.7,0-1.4,0.3-1.9,0.8
		s-0.8,1.3-0.9,2.1l0,0h5.3v-0.2c0-0.8-0.2-1.4-0.7-2C379.7,91.4,379.1,91.1,378.3,91.1z"/>
	<path class="st5" d="M384.6,90.4l0.1,1.5c0.3-0.5,0.7-0.9,1.1-1.2s1.1-0.4,1.7-0.4c0.7,0,1.3,0.2,1.7,0.5s0.8,0.8,1,1.5
		c0.3-0.6,0.7-1.1,1.2-1.5c0.5-0.4,1.1-0.5,1.8-0.5c1,0,1.7,0.3,2.2,1c0.5,0.6,0.8,1.6,0.8,3v5.2h-1v-5.3c0-1.1-0.2-1.9-0.6-2.3
		c-0.4-0.5-0.9-0.7-1.6-0.7c-0.8,0-1.4,0.2-1.8,0.7c-0.4,0.5-0.7,1.1-0.8,1.9c0,0,0,0.1,0,0.2c0,0.1,0,0.1,0,0.2v5.4h-1v-5.3
		c0-1.1-0.2-1.9-0.6-2.3c-0.4-0.5-0.9-0.7-1.6-0.7c-0.7,0-1.3,0.2-1.7,0.5c-0.4,0.4-0.7,0.8-0.9,1.4v6.3h-1v-9H384.6z"/>
	<path class="st5" d="M402.2,99.6c-1.1,0-2.1-0.4-2.8-1.2s-1.1-1.9-1.1-3.2v-0.5c0-1.3,0.4-2.3,1.1-3.2c0.7-0.8,1.6-1.3,2.7-1.3
		c1.1,0,2,0.3,2.6,1s0.9,1.6,0.9,2.8v0.8h-6.3v0.2c0,1,0.3,1.9,0.8,2.5c0.5,0.7,1.2,1,2.1,1c0.6,0,1.1-0.1,1.6-0.3
		c0.4-0.2,0.8-0.4,1.1-0.7l0.4,0.7c-0.3,0.4-0.8,0.6-1.3,0.8S403,99.6,402.2,99.6z M402.1,91.1c-0.7,0-1.4,0.3-1.9,0.8
		s-0.8,1.3-0.9,2.1l0,0h5.3v-0.2c0-0.8-0.2-1.4-0.7-2C403.5,91.4,402.9,91.1,402.1,91.1z"/>
	<path class="st5" d="M408.5,90.4l0.1,1.6c0.3-0.6,0.7-1,1.2-1.3c0.5-0.3,1.1-0.5,1.7-0.5c1,0,1.7,0.3,2.2,0.9
		c0.5,0.6,0.8,1.5,0.8,2.8v5.5h-1v-5.5c0-1-0.2-1.8-0.6-2.2c-0.4-0.4-0.9-0.6-1.6-0.6c-0.7,0-1.3,0.2-1.7,0.6
		c-0.4,0.4-0.8,0.9-1,1.5v6.3h-1v-9H408.5z"/>
	<path class="st5" d="M418.6,88.1v2.3h2v0.8h-2v5.9c0,0.6,0.1,1,0.3,1.2c0.2,0.2,0.5,0.4,0.9,0.4c0.2,0,0.3,0,0.5,0
		c0.2,0,0.3,0,0.5-0.1l0.1,0.7c-0.2,0.1-0.4,0.1-0.6,0.2s-0.5,0.1-0.7,0.1c-0.6,0-1.1-0.2-1.5-0.6s-0.5-1-0.5-1.9v-5.9h-1.6v-0.8
		h1.6v-2.3H418.6z"/>
</g>
<g>
	<path class="st5" d="M111.4,262.3c0-1.4,0.3-2.6,0.9-3.4c0.6-0.9,1.5-1.3,2.5-1.3c0.6,0,1.2,0.1,1.6,0.4s0.8,0.6,1.1,1.1v-5.3h1
		v12.9h-0.9l-0.1-1.3c-0.3,0.5-0.7,0.8-1.2,1.1c-0.5,0.3-1,0.4-1.7,0.4c-1.1,0-1.9-0.4-2.5-1.2c-0.6-0.8-0.9-1.9-0.9-3.2V262.3z
		 M112.4,262.4c0,1.1,0.2,2,0.7,2.6c0.4,0.6,1.1,1,2,1c0.6,0,1.2-0.1,1.6-0.4c0.4-0.3,0.8-0.7,1-1.2v-4.2c-0.2-0.5-0.5-0.9-1-1.3
		c-0.4-0.3-1-0.5-1.6-0.5c-0.9,0-1.5,0.4-2,1.1c-0.4,0.7-0.7,1.7-0.7,2.8V262.4z"/>
	<path class="st5" d="M124.6,266.8c-1.1,0-2.1-0.4-2.8-1.2c-0.7-0.8-1.1-1.9-1.1-3.2V262c0-1.3,0.4-2.3,1.1-3.2
		c0.7-0.8,1.6-1.3,2.7-1.3c1.1,0,2,0.3,2.6,1s0.9,1.6,0.9,2.8v0.8h-6.3v0.2c0,1,0.3,1.9,0.8,2.5c0.5,0.7,1.2,1,2.1,1
		c0.6,0,1.1-0.1,1.6-0.3s0.8-0.4,1.1-0.7l0.4,0.7c-0.3,0.4-0.8,0.6-1.3,0.8C125.9,266.7,125.3,266.8,124.6,266.8z M124.5,258.4
		c-0.7,0-1.4,0.3-1.9,0.8c-0.5,0.6-0.8,1.3-0.9,2.1l0,0h5.3v-0.2c0-0.8-0.2-1.4-0.7-2S125.3,258.4,124.5,258.4z"/>
	<path class="st5" d="M141.4,262.4c0,1.3-0.3,2.4-0.9,3.2s-1.4,1.2-2.5,1.2c-0.6,0-1.2-0.1-1.7-0.4c-0.5-0.2-0.9-0.6-1.2-1v4.7h-1
		v-12.4h0.8l0.1,1.4c0.3-0.5,0.7-0.9,1.2-1.2c0.5-0.3,1-0.4,1.7-0.4c1.1,0,1.9,0.4,2.5,1.3s0.9,2,0.9,3.4V262.4z M140.4,262.2
		c0-1.1-0.2-2.1-0.7-2.8c-0.5-0.7-1.1-1.1-2-1.1c-0.7,0-1.2,0.2-1.6,0.5c-0.4,0.3-0.7,0.7-0.9,1.2v4.3c0.2,0.5,0.6,0.9,1,1.2
		c0.4,0.3,1,0.4,1.6,0.4c0.9,0,1.5-0.3,2-1c0.5-0.7,0.7-1.5,0.7-2.6V262.2z"/>
	<path class="st5" d="M147.7,258.5l-0.7,0c-0.6,0-1.1,0.2-1.5,0.5c-0.4,0.4-0.7,0.8-0.9,1.4v6.2h-1v-9h0.9l0.1,1.5v0.1
		c0.3-0.6,0.6-1,1-1.3s1-0.5,1.6-0.5c0.1,0,0.3,0,0.4,0c0.1,0,0.2,0,0.3,0.1L147.7,258.5z"/>
	<path class="st5" d="M148.7,262c0-1.3,0.4-2.4,1.1-3.3c0.7-0.8,1.7-1.3,2.9-1.3c1.2,0,2.2,0.4,2.9,1.3c0.7,0.8,1.1,1.9,1.1,3.3v0.3
		c0,1.3-0.4,2.4-1.1,3.3c-0.7,0.8-1.7,1.3-2.9,1.3c-1.2,0-2.2-0.4-2.9-1.3s-1.1-1.9-1.1-3.3V262z M149.7,262.3c0,1,0.3,1.9,0.8,2.6
		c0.5,0.7,1.3,1.1,2.2,1.1c0.9,0,1.7-0.4,2.2-1.1c0.5-0.7,0.8-1.6,0.8-2.6V262c0-1-0.3-1.9-0.8-2.6c-0.5-0.7-1.3-1.1-2.2-1.1
		s-1.7,0.4-2.2,1.1c-0.5,0.7-0.8,1.6-0.8,2.6V262.3z"/>
	<path class="st5" d="M159.8,257.7v9.7c0,0.9-0.2,1.6-0.7,2.1s-1.1,0.8-1.8,0.8c-0.2,0-0.3,0-0.5,0c-0.1,0-0.3-0.1-0.5-0.1l0.1-0.8
		c0.1,0,0.2,0.1,0.4,0.1c0.2,0,0.3,0,0.4,0c0.5,0,0.9-0.2,1.2-0.5c0.3-0.3,0.4-0.8,0.4-1.5v-9.7H159.8z M159.8,255.1h-1v-1.4h1
		V255.1z"/>
	<path class="st5" d="M166.1,266.8c-1.1,0-2.1-0.4-2.8-1.2c-0.7-0.8-1.1-1.9-1.1-3.2V262c0-1.3,0.4-2.3,1.1-3.2
		c0.7-0.8,1.6-1.3,2.7-1.3c1.1,0,2,0.3,2.6,1s0.9,1.6,0.9,2.8v0.8h-6.3v0.2c0,1,0.3,1.9,0.8,2.5c0.5,0.7,1.2,1,2.1,1
		c0.6,0,1.1-0.1,1.6-0.3s0.8-0.4,1.1-0.7l0.4,0.7c-0.3,0.4-0.8,0.6-1.3,0.8C167.4,266.7,166.8,266.8,166.1,266.8z M165.9,258.4
		c-0.7,0-1.4,0.3-1.9,0.8c-0.5,0.6-0.8,1.3-0.9,2.1l0,0h5.3v-0.2c0-0.8-0.2-1.4-0.7-2S166.7,258.4,165.9,258.4z"/>
	<path class="st5" d="M173,255.4v2.3h2v0.8h-2v5.9c0,0.6,0.1,1,0.3,1.2c0.2,0.2,0.5,0.4,0.9,0.4c0.2,0,0.3,0,0.5,0
		c0.2,0,0.3,0,0.5-0.1l0.1,0.7c-0.2,0.1-0.4,0.1-0.6,0.2s-0.5,0.1-0.7,0.1c-0.6,0-1.1-0.2-1.5-0.6c-0.4-0.4-0.5-1-0.5-1.9v-5.9h-1.6
		v-0.8h1.6v-2.3H173z"/>
</g>
</svg>
