<?xml version="1.0" encoding="utf-8"?>
<!-- Generator: Adobe Illustrator 22.0.1, SVG Export Plug-In . SVG Version: 6.00 Build 0)  -->
<svg version="1.1" id="Calque_1" xmlns="http://www.w3.org/2000/svg" xmlns:xlink="http://www.w3.org/1999/xlink" x="0px" y="0px"
	 viewBox="0 0 431 273" style="enable-background:new 0 0 431 273;" xml:space="preserve">
<style type="text/css">
	.st0{fill:#252525;}
	.st1{opacity:0.253;fill:none;stroke:#252525;stroke-linecap:square;enable-background:new    ;}
	.st2{fill:none;stroke:#5E091C;stroke-width:22;}
	.st3{fill:none;stroke:#910F2B;stroke-width:22;}
	.st4{fill:none;stroke:#C5143A;stroke-width:22;}
	.st5{fill:#575757;}
</style>
<title>text</title>
<desc>Created with Sketch.</desc>
<g id="Why-attend" transform="translate(-208.000000, -3162.000000)">
	<g id="top-3-function" transform="translate(195.000000, 2992.000000)">
		<g id="text" transform="translate(13.000000, 170.000000)">
			<g id="Group-18">
				<g id="Group-14" transform="translate(221.000000, 0.000000)">
					<path id="_x32_7_x25_" class="st0" d="M39.5,31v-3.9l9.7-10.4c1.4-1.6,2.4-2.9,3-4.1S53,10.6,53,9.6c0-1.3-0.3-2.3-1-3.1
						s-1.6-1.2-2.9-1.2c-1.4,0-2.4,0.5-3.1,1.4s-1.1,2.2-1.1,3.7h-5.8l0-0.1c-0.1-2.7,0.8-5,2.7-6.8s4.3-2.8,7.4-2.8
						c3.1,0,5.5,0.8,7.3,2.4S59,6.8,59,9.5c0,1.8-0.5,3.5-1.5,5s-2.6,3.5-4.9,6l-5.3,5.8l0,0.1h7.8l0.2-3h4.6V31H39.5z M83.3,5.8
						c-3.2,3.7-5.4,7.2-6.6,10.5s-2,7.2-2.5,11.7L74,31h-6l0.3-3c0.5-4.4,1.5-8.4,3-12.1s3.6-7,6.3-10.1H67l-0.2,3h-4.6V1.1h21.1
						V5.8z M84.9,6.9c0-1.8,0.6-3.2,1.7-4.4s2.7-1.8,4.8-1.8c2.1,0,3.7,0.6,4.8,1.8s1.7,2.6,1.7,4.4v1.6c0,1.8-0.6,3.2-1.7,4.4
						s-2.7,1.7-4.8,1.7c-2.1,0-3.7-0.6-4.8-1.7s-1.7-2.6-1.7-4.4V6.9z M88.9,8.5c0,0.8,0.2,1.5,0.7,2s1.1,0.8,1.9,0.8
						c0.8,0,1.4-0.3,1.8-0.8s0.7-1.2,0.7-2V6.9c0-0.8-0.2-1.5-0.7-2S92.2,4,91.4,4S90,4.3,89.5,4.9s-0.6,1.2-0.6,2V8.5z M99.2,23.7
						c0-1.8,0.6-3.2,1.7-4.4s2.7-1.8,4.8-1.8c2.1,0,3.6,0.6,4.8,1.8s1.7,2.6,1.7,4.4v1.6c0,1.8-0.6,3.2-1.7,4.4s-2.7,1.7-4.8,1.7
						c-2.1,0-3.7-0.6-4.8-1.8s-1.7-2.6-1.7-4.4V23.7z M103.2,25.3c0,0.8,0.2,1.4,0.7,2s1.1,0.8,1.9,0.8c0.9,0,1.5-0.3,1.9-0.8
						s0.6-1.2,0.6-2.1v-1.6c0-0.8-0.2-1.4-0.7-2s-1.1-0.8-1.9-0.8c-0.8,0-1.4,0.3-1.9,0.8s-0.6,1.2-0.6,2V25.3z M93.1,28.8l-2.9-1.5
						l14.6-23.3l2.9,1.5L93.1,28.8z"/>
					<path id="Line-2" class="st1" d="M0,41.5L18,30"/>
					<ellipse id="Oval" class="st0" cx="19.5" cy="28.4" rx="2.5" ry="2.4"/>
				</g>
				<g id="Group-16" transform="translate(142.000000, 146.000000)">
					<path id="_x32_5_x25_" class="st0" d="M0.5,73v-3.9l9.7-10.4c1.4-1.6,2.4-2.9,3-4.1s0.9-2.1,0.9-3.1c0-1.3-0.3-2.3-1-3.1
						s-1.6-1.2-2.9-1.2c-1.4,0-2.4,0.5-3.1,1.4s-1.1,2.2-1.1,3.7H0.1l0-0.1c-0.1-2.7,0.8-5,2.7-6.8s4.3-2.8,7.4-2.8
						c3.1,0,5.5,0.8,7.3,2.4s2.6,3.7,2.6,6.4c0,1.8-0.5,3.5-1.5,5s-2.6,3.5-4.9,6l-5.3,5.8l0,0.1h7.8l0.2-3h4.6V73H0.5z M39.3,49.9
						l-0.5-2h-8l-0.8,6.9c0.6-0.4,1.2-0.7,2-1s1.6-0.4,2.6-0.4c2.9,0,5.1,0.8,6.7,2.6s2.4,4.3,2.4,7.4c0,2.9-0.9,5.3-2.6,7.2
						s-4.2,2.9-7.5,2.9c-2.7,0-5.1-0.7-7-2.2s-2.9-3.6-2.8-6.2l0-0.1l5.7-0.3c0,1.3,0.4,2.4,1.1,3.1s1.7,1.1,3,1.1
						c1.4,0,2.4-0.5,3.1-1.5s1-2.3,1-3.9c0-1.7-0.4-3.1-1.1-4.1s-1.8-1.6-3.2-1.6c-1.1,0-2,0.2-2.6,0.6s-1,1-1.3,1.7l-5.3-0.3
						l1.7-16.6H43v6.8H39.3z M45.6,48.9c0-1.8,0.6-3.2,1.7-4.4s2.7-1.8,4.8-1.8c2.1,0,3.7,0.6,4.8,1.8s1.7,2.6,1.7,4.4v1.6
						c0,1.8-0.6,3.2-1.7,4.4s-2.7,1.7-4.8,1.7c-2.1,0-3.7-0.6-4.8-1.7s-1.7-2.6-1.7-4.4V48.9z M49.6,50.5c0,0.8,0.2,1.5,0.7,2
						s1.1,0.8,1.9,0.8c0.8,0,1.4-0.3,1.8-0.8s0.7-1.2,0.7-2v-1.6c0-0.8-0.2-1.5-0.7-2S52.9,46,52.1,46s-1.4,0.3-1.9,0.8
						s-0.6,1.2-0.6,2V50.5z M59.9,65.7c0-1.8,0.6-3.2,1.7-4.4s2.7-1.8,4.8-1.8c2.1,0,3.6,0.6,4.8,1.8s1.7,2.6,1.7,4.4v1.6
						c0,1.8-0.6,3.2-1.7,4.4s-2.7,1.7-4.8,1.7c-2.1,0-3.7-0.6-4.8-1.8s-1.7-2.6-1.7-4.4V65.7z M63.9,67.3c0,0.8,0.2,1.4,0.7,2
						s1.1,0.8,1.9,0.8c0.9,0,1.5-0.3,1.9-0.8s0.6-1.2,0.6-2.1v-1.6c0-0.8-0.2-1.4-0.7-2c-0.4-0.6-1.1-0.8-1.9-0.8
						c-0.8,0-1.4,0.3-1.9,0.8c-0.4,0.6-0.6,1.2-0.6,2V67.3z M53.8,70.8l-2.9-1.5l14.6-23.3l2.9,1.5L53.8,70.8z"/>
					<path id="Line-2_1_" class="st1" d="M24.5,23.5l1-23"/>
					<ellipse id="Oval-Copy" class="st0" cx="24.5" cy="26.4" rx="2.5" ry="2.4"/>
				</g>
				<g id="Group-17" transform="translate(0.000000, 1.000000)">
					<path id="_x32_1_x25_" class="st0" d="M1.4,31v-3.9l9.7-10.4c1.4-1.6,2.4-2.9,3-4.1s0.9-2.1,0.9-3.1c0-1.3-0.3-2.3-1-3.1
						S12.3,5.3,11,5.3c-1.4,0-2.4,0.5-3.1,1.4s-1.1,2.2-1.1,3.7H1l0-0.1c-0.1-2.7,0.8-5,2.7-6.8S7.9,0.7,11,0.7
						c3.1,0,5.5,0.8,7.3,2.4s2.6,3.7,2.6,6.4c0,1.8-0.5,3.5-1.5,5s-2.6,3.5-4.9,6l-5.3,5.8l0,0.1H17l0.2-3h4.6V31H1.4z M24.5,27.4
						l5-0.6V6.6h-5.1V3.2l11.1-2v25.7l5,0.6V31H24.5V27.4z M42.7,6.9c0-1.8,0.6-3.2,1.7-4.4s2.7-1.8,4.8-1.8c2.1,0,3.7,0.6,4.8,1.8
						s1.7,2.6,1.7,4.4v1.6c0,1.8-0.6,3.2-1.7,4.4s-2.7,1.7-4.8,1.7c-2.1,0-3.7-0.6-4.8-1.7s-1.7-2.6-1.7-4.4V6.9z M46.7,8.5
						c0,0.8,0.2,1.5,0.7,2s1.1,0.8,1.9,0.8c0.8,0,1.4-0.3,1.8-0.8s0.7-1.2,0.7-2V6.9c0-0.8-0.2-1.5-0.7-2S50,4,49.2,4
						s-1.4,0.3-1.9,0.8s-0.6,1.2-0.6,2V8.5z M57,23.7c0-1.8,0.6-3.2,1.7-4.4s2.7-1.8,4.8-1.8c2.1,0,3.6,0.6,4.8,1.8s1.7,2.6,1.7,4.4
						v1.6c0,1.8-0.6,3.2-1.7,4.4s-2.7,1.7-4.8,1.7c-2.1,0-3.7-0.6-4.8-1.8S57,27,57,25.3V23.7z M61,25.3c0,0.8,0.2,1.4,0.7,2
						s1.1,0.8,1.9,0.8c0.9,0,1.5-0.3,1.9-0.8s0.6-1.2,0.6-2.1v-1.6c0-0.8-0.2-1.4-0.7-2s-1.1-0.8-1.9-0.8c-0.8,0-1.4,0.3-1.9,0.8
						s-0.6,1.2-0.6,2V25.3z M50.9,28.8L48,27.2L62.6,3.9l2.9,1.5L50.9,28.8z"/>
					<path id="Line-2-Copy" class="st1" d="M90.5,28.5l23,17"/>
					<ellipse id="Oval-Copy_1_" class="st0" cx="88.5" cy="26.4" rx="2.5" ry="2.4"/>
				</g>
			</g>
			<g id="Donut-chart" transform="translate(114.000000, 27.000000)">
				<path id="donut_3" class="st2" d="M1.7,67.5C-5.8,38.6,11.8,9.1,41,1.7c4.4-1.1,9-1.7,13.6-1.7"/>
				<path id="donut_2" class="st3" d="M94.3,91c-20.6,21.8-55.1,22.8-77,2.4c-7.5-7-12.9-16-15.5-26"/>
				<path id="donut_1" class="st4" d="M54.5,0C84.6,0,109,24.2,109,54c0,13.7-5.3,27-14.8,37"/>
			</g>
		</g>
	</g>
	<g>
		<path class="st5" d="M470.5,3214.7v-12.1h3.5c1.5,0,2.7,0.5,3.7,1.5c1,1,1.4,2.2,1.4,3.8v1.6c0,1.5-0.5,2.8-1.4,3.8
			c-1,1-2.2,1.5-3.7,1.5H470.5z M471.5,3203.4v10.4h2.5c1.2,0,2.2-0.4,3-1.3c0.8-0.8,1.2-1.9,1.2-3.2v-1.6c0-1.3-0.4-2.3-1.2-3.1
			c-0.8-0.8-1.8-1.3-2.9-1.3H471.5z"/>
		<path class="st5" d="M482.5,3203.1h-1v-1.4h1V3203.1z M482.5,3214.7h-1v-9h1V3214.7z"/>
		<path class="st5" d="M489.4,3206.6l-0.7,0c-0.6,0-1.1,0.2-1.5,0.5s-0.7,0.8-0.9,1.4v6.2h-1v-9h0.9l0.1,1.5v0.1
			c0.3-0.6,0.6-1,1-1.3s1-0.5,1.6-0.5c0.1,0,0.2,0,0.4,0s0.2,0,0.3,0.1L489.4,3206.6z"/>
		<path class="st5" d="M494.3,3214.9c-1.1,0-2.1-0.4-2.8-1.2s-1.1-1.9-1.1-3.2v-0.5c0-1.3,0.4-2.3,1.1-3.2c0.7-0.8,1.6-1.3,2.7-1.3
			c1.1,0,2,0.3,2.6,1s0.9,1.6,0.9,2.8v0.8h-6.3v0.2c0,1,0.3,1.9,0.8,2.5c0.5,0.7,1.2,1,2.1,1c0.6,0,1.1-0.1,1.6-0.3
			c0.4-0.2,0.8-0.4,1.1-0.7l0.4,0.7c-0.3,0.4-0.8,0.6-1.3,0.8C495.6,3214.7,495,3214.9,494.3,3214.9z M494.1,3206.4
			c-0.7,0-1.4,0.3-1.9,0.8c-0.5,0.6-0.8,1.3-0.9,2.1l0,0h5.3v-0.2c0-0.8-0.2-1.4-0.7-2S494.9,3206.4,494.1,3206.4z"/>
		<path class="st5" d="M503,3214c0.7,0,1.2-0.2,1.7-0.6c0.5-0.4,0.8-0.9,0.8-1.6h0.9l0,0c0,0.8-0.3,1.5-1,2.1s-1.5,0.8-2.4,0.8
			c-1.2,0-2.2-0.4-2.8-1.3c-0.7-0.8-1-1.9-1-3.2v-0.3c0-1.3,0.3-2.4,1-3.2s1.6-1.3,2.8-1.3c1,0,1.8,0.3,2.5,0.9c0.7,0.6,1,1.3,1,2.3
			l0,0h-0.9c0-0.7-0.2-1.3-0.7-1.7s-1.1-0.6-1.8-0.6c-1,0-1.7,0.3-2.1,1s-0.7,1.6-0.7,2.6v0.3c0,1.1,0.2,1.9,0.7,2.6
			S502,3214,503,3214z"/>
		<path class="st5" d="M510,3203.4v2.3h2v0.8h-2v5.9c0,0.6,0.1,1,0.3,1.2s0.5,0.4,0.9,0.4c0.2,0,0.3,0,0.5,0s0.3,0,0.5-0.1l0.1,0.7
			c-0.2,0.1-0.4,0.1-0.6,0.2s-0.5,0.1-0.7,0.1c-0.6,0-1.1-0.2-1.5-0.6s-0.5-1-0.5-1.9v-5.9h-1.6v-0.8h1.6v-2.3H510z"/>
		<path class="st5" d="M517.5,3214.9c-1.1,0-2.1-0.4-2.8-1.2s-1.1-1.9-1.1-3.2v-0.5c0-1.3,0.4-2.3,1.1-3.2c0.7-0.8,1.6-1.3,2.7-1.3
			c1.1,0,2,0.3,2.6,1s0.9,1.6,0.9,2.8v0.8h-6.3v0.2c0,1,0.3,1.9,0.8,2.5c0.5,0.7,1.2,1,2.1,1c0.6,0,1.1-0.1,1.6-0.3
			c0.4-0.2,0.8-0.4,1.1-0.7l0.4,0.7c-0.3,0.4-0.8,0.6-1.3,0.8C518.8,3214.7,518.2,3214.9,517.5,3214.9z M517.3,3206.4
			c-0.7,0-1.4,0.3-1.9,0.8c-0.5,0.6-0.8,1.3-0.9,2.1l0,0h5.3v-0.2c0-0.8-0.2-1.4-0.7-2S518.1,3206.4,517.3,3206.4z"/>
		<path class="st5" d="M528.7,3213.2c-0.3,0.5-0.7,0.9-1.2,1.2c-0.5,0.3-1.1,0.4-1.7,0.4c-0.9,0-1.7-0.3-2.2-1
			c-0.5-0.6-0.8-1.6-0.8-3v-5.2h1v5.2c0,1.1,0.2,1.9,0.6,2.4c0.4,0.5,0.9,0.7,1.6,0.7c0.8,0,1.4-0.2,1.8-0.5s0.8-0.8,0.9-1.4v-6.4h1
			v9h-0.9L528.7,3213.2z"/>
		<path class="st5" d="M536.5,3206.6l-0.7,0c-0.6,0-1.1,0.2-1.5,0.5s-0.7,0.8-0.9,1.4v6.2h-1v-9h0.9l0.1,1.5v0.1
			c0.3-0.6,0.6-1,1-1.3s1-0.5,1.6-0.5c0.1,0,0.2,0,0.4,0s0.2,0,0.3,0.1L536.5,3206.6z"/>
		<path class="st5" d="M538,3214.5l-0.9,2.3h-0.7l0.6-2.3v-1.4h1V3214.5z"/>
	</g>
	<g>
		<path class="st5" d="M350.9,3399.3v5h-1v-12.1h4.2c1.3,0,2.2,0.3,2.9,1s1,1.5,1,2.6c0,1.1-0.3,1.9-1,2.6c-0.7,0.6-1.7,1-2.9,1
			H350.9z M350.9,3398.4h3.2c1,0,1.7-0.3,2.2-0.8c0.5-0.5,0.8-1.1,0.8-1.9c0-0.8-0.2-1.4-0.7-1.9s-1.2-0.8-2.2-0.8h-3.2V3398.4z"/>
		<path class="st5" d="M364.3,3396.1l-0.7,0c-0.6,0-1.1,0.2-1.5,0.5s-0.7,0.8-0.9,1.4v6.2h-1v-9h0.9l0.1,1.5v0.1
			c0.3-0.6,0.6-1,1-1.3s1-0.5,1.6-0.5c0.1,0,0.2,0,0.4,0s0.2,0,0.3,0.1L364.3,3396.1z"/>
		<path class="st5" d="M365.2,3399.7c0-1.3,0.4-2.4,1.1-3.3c0.7-0.8,1.7-1.3,2.9-1.3c1.2,0,2.2,0.4,2.9,1.3c0.7,0.8,1.1,1.9,1.1,3.3
			v0.3c0,1.3-0.4,2.4-1.1,3.3c-0.7,0.8-1.7,1.3-2.9,1.3c-1.2,0-2.2-0.4-2.9-1.3s-1.1-1.9-1.1-3.3V3399.7z M366.2,3399.9
			c0,1,0.3,1.9,0.8,2.6c0.5,0.7,1.3,1.1,2.2,1.1c0.9,0,1.7-0.4,2.2-1.1c0.5-0.7,0.8-1.6,0.8-2.6v-0.3c0-1-0.3-1.9-0.8-2.6
			c-0.5-0.7-1.3-1.1-2.2-1.1s-1.7,0.4-2.2,1.1c-0.5,0.7-0.8,1.6-0.8,2.6V3399.9z"/>
		<path class="st5" d="M374.8,3399.9c0-1.4,0.3-2.6,0.9-3.4c0.6-0.9,1.5-1.3,2.5-1.3c0.6,0,1.2,0.1,1.6,0.4s0.8,0.6,1.1,1.1v-5.3h1
			v12.9h-0.9l-0.1-1.3c-0.3,0.5-0.7,0.8-1.2,1.1c-0.5,0.3-1,0.4-1.7,0.4c-1.1,0-1.9-0.4-2.5-1.2c-0.6-0.8-0.9-1.9-0.9-3.2V3399.9z
			 M375.8,3400c0,1.1,0.2,2,0.7,2.6s1.1,1,2,1c0.6,0,1.2-0.1,1.6-0.4s0.8-0.7,1-1.2v-4.2c-0.2-0.5-0.5-0.9-1-1.3
			c-0.4-0.3-1-0.5-1.6-0.5c-0.9,0-1.5,0.4-2,1.1c-0.4,0.7-0.7,1.7-0.7,2.8V3400z"/>
		<path class="st5" d="M390.6,3402.8c-0.3,0.5-0.7,0.9-1.2,1.2c-0.5,0.3-1.1,0.4-1.7,0.4c-0.9,0-1.7-0.3-2.2-1
			c-0.5-0.6-0.8-1.6-0.8-3v-5.2h1v5.2c0,1.1,0.2,1.9,0.6,2.4c0.4,0.5,0.9,0.7,1.6,0.7c0.8,0,1.4-0.2,1.8-0.5s0.8-0.8,0.9-1.4v-6.4h1
			v9h-0.9L390.6,3402.8z"/>
		<path class="st5" d="M395.2,3392.7h-1v-1.4h1V3392.7z M395.2,3404.3h-1v-9h1V3404.3z"/>
		<path class="st5" d="M399.6,3393v2.3h2v0.8h-2v5.9c0,0.6,0.1,1,0.3,1.2s0.5,0.4,0.9,0.4c0.2,0,0.3,0,0.5,0s0.3,0,0.5-0.1l0.1,0.7
			c-0.2,0.1-0.4,0.1-0.6,0.2s-0.5,0.1-0.7,0.1c-0.6,0-1.1-0.2-1.5-0.6s-0.5-1-0.5-1.9v-5.9H397v-0.8h1.6v-2.3H399.6z"/>
		<path class="st5" d="M403.5,3405.3h-0.9l5-13.1h0.9L403.5,3405.3z"/>
		<path class="st5" d="M419,3400.5L419,3400.5c-0.1,1.3-0.5,2.2-1.3,2.9s-1.8,1-3,1c-1.3,0-2.4-0.5-3.3-1.5c-0.8-1-1.2-2.2-1.2-3.8
			v-2c0-1.5,0.4-2.8,1.2-3.8c0.8-1,1.9-1.5,3.3-1.5c1.3,0,2.3,0.3,3.1,1c0.8,0.7,1.2,1.6,1.3,2.9l0,0h-0.9c-0.1-1-0.5-1.8-1-2.3
			c-0.6-0.5-1.3-0.8-2.4-0.8c-1.1,0-1.9,0.4-2.5,1.2c-0.6,0.8-1,1.9-1,3.1v2c0,1.3,0.3,2.3,1,3.2c0.6,0.8,1.5,1.2,2.5,1.2
			c1,0,1.8-0.3,2.4-0.8c0.6-0.5,0.9-1.3,1-2.3H419z"/>
		<path class="st5" d="M422.3,3396.8c0.3-0.5,0.7-1,1.2-1.3s1.1-0.4,1.7-0.4c0.9,0,1.7,0.3,2.2,0.9c0.5,0.6,0.8,1.5,0.8,2.7v5.5h-1
			v-5.6c0-1-0.2-1.7-0.6-2.1c-0.4-0.4-0.9-0.6-1.6-0.6c-0.7,0-1.2,0.2-1.7,0.5c-0.5,0.4-0.8,0.8-1,1.4v6.3h-1v-12.9h1V3396.8z"/>
		<path class="st5" d="M434.1,3404.4c-1.1,0-2.1-0.4-2.8-1.2s-1.1-1.9-1.1-3.2v-0.5c0-1.3,0.4-2.3,1.1-3.2c0.7-0.8,1.6-1.3,2.7-1.3
			c1.1,0,2,0.3,2.6,1s0.9,1.6,0.9,2.8v0.8h-6.3v0.2c0,1,0.3,1.9,0.8,2.5c0.5,0.7,1.2,1,2.1,1c0.6,0,1.1-0.1,1.6-0.3
			c0.4-0.2,0.8-0.4,1.1-0.7l0.4,0.7c-0.3,0.4-0.8,0.6-1.3,0.8C435.4,3404.3,434.8,3404.4,434.1,3404.4z M434,3396
			c-0.7,0-1.4,0.3-1.9,0.8c-0.5,0.6-0.8,1.3-0.9,2.1l0,0h5.3v-0.2c0-0.8-0.2-1.4-0.7-2S434.8,3396,434,3396z"/>
		<path class="st5" d="M440.2,3404.3v-8.2h-1.5v-0.8h1.5v-1.3c0-0.9,0.2-1.6,0.7-2.1c0.5-0.5,1.1-0.7,1.9-0.7c0.2,0,0.4,0,0.6,0
			c0.2,0,0.4,0.1,0.6,0.1l-0.1,0.8c-0.1,0-0.3-0.1-0.4-0.1c-0.1,0-0.3,0-0.5,0c-0.5,0-1,0.2-1.2,0.5c-0.3,0.3-0.4,0.8-0.4,1.4v1.3
			h2.1v0.8h-2.1v8.2H440.2z"/>
	</g>
	<g>
		<path class="st5" d="M248.1,3210.1v5h-1V3203h4.2c1.3,0,2.2,0.3,2.9,1c0.7,0.6,1,1.5,1,2.6c0,1.1-0.3,1.9-1,2.6
			c-0.7,0.6-1.7,1-2.9,1H248.1z M248.1,3209.2h3.2c1,0,1.7-0.3,2.2-0.8c0.5-0.5,0.8-1.1,0.8-1.9c0-0.8-0.2-1.4-0.7-1.9
			c-0.5-0.5-1.2-0.8-2.2-0.8h-3.2V3209.2z"/>
		<path class="st5" d="M257.6,3215.1V3203h3.5c1.5,0,2.7,0.5,3.7,1.5s1.4,2.2,1.4,3.8v1.6c0,1.5-0.5,2.8-1.4,3.8s-2.2,1.5-3.7,1.5
			H257.6z M258.6,3203.9v10.4h2.5c1.2,0,2.2-0.4,3-1.3c0.8-0.8,1.2-1.9,1.2-3.2v-1.6c0-1.3-0.4-2.3-1.2-3.1s-1.8-1.3-2.9-1.3H258.6z
			"/>
		<path class="st5" d="M277.4,3213.7c-0.3,0.4-0.8,0.8-1.5,1.1c-0.7,0.3-1.6,0.5-2.7,0.5c-1.4,0-2.6-0.5-3.5-1.4
			c-0.9-1-1.3-2.2-1.3-3.7v-2.2c0-1.5,0.4-2.7,1.3-3.7c0.9-0.9,2-1.4,3.3-1.4c1.3,0,2.3,0.3,3.1,1c0.7,0.7,1.2,1.5,1.3,2.5l0,0h-0.9
			c-0.1-0.8-0.5-1.5-1-2c-0.5-0.5-1.3-0.8-2.4-0.8c-1.1,0-2,0.4-2.6,1.2c-0.7,0.8-1,1.8-1,3v2.2c0,1.3,0.4,2.3,1.1,3.1
			s1.6,1.2,2.8,1.2c0.8,0,1.5-0.1,2-0.3c0.6-0.2,0.9-0.5,1.1-0.7v-3.1h-3.2v-0.8h4.2V3213.7z"/>
	</g>
	<g>
		<path class="st5" d="M478.8,3233.7L478.8,3233.7c-0.1,1.3-0.5,2.2-1.3,2.9c-0.8,0.7-1.8,1-3,1c-1.3,0-2.4-0.5-3.3-1.5
			c-0.8-1-1.2-2.2-1.2-3.8v-2c0-1.5,0.4-2.8,1.2-3.8c0.8-1,1.9-1.5,3.3-1.5c1.3,0,2.3,0.3,3.1,1c0.8,0.7,1.2,1.6,1.3,2.9l0,0h-0.9
			c-0.1-1-0.5-1.8-1-2.3c-0.6-0.5-1.3-0.8-2.4-0.8c-1.1,0-1.9,0.4-2.5,1.2c-0.6,0.8-1,1.9-1,3.1v2c0,1.3,0.3,2.3,1,3.2
			c0.6,0.8,1.5,1.2,2.5,1.2c1,0,1.8-0.3,2.4-0.8c0.6-0.5,0.9-1.3,1-2.3H478.8z"/>
		<path class="st5" d="M482.1,3230c0.3-0.5,0.7-1,1.2-1.3s1.1-0.4,1.7-0.4c0.9,0,1.7,0.3,2.2,0.9c0.5,0.6,0.8,1.5,0.8,2.7v5.5h-1
			v-5.6c0-1-0.2-1.7-0.6-2.1c-0.4-0.4-0.9-0.6-1.6-0.6c-0.7,0-1.2,0.2-1.7,0.5c-0.5,0.4-0.8,0.8-1,1.4v6.3h-1v-12.9h1V3230z"/>
		<path class="st5" d="M494,3237.6c-1.1,0-2.1-0.4-2.8-1.2s-1.1-1.9-1.1-3.2v-0.5c0-1.3,0.4-2.3,1.1-3.2c0.7-0.8,1.6-1.3,2.7-1.3
			c1.1,0,2,0.3,2.6,1s0.9,1.6,0.9,2.8v0.8h-6.3v0.2c0,1,0.3,1.9,0.8,2.5c0.5,0.7,1.2,1,2.1,1c0.6,0,1.1-0.1,1.6-0.3
			c0.4-0.2,0.8-0.4,1.1-0.7l0.4,0.7c-0.3,0.4-0.8,0.6-1.3,0.8S494.7,3237.6,494,3237.6z M493.9,3229.2c-0.7,0-1.4,0.3-1.9,0.8
			s-0.8,1.3-0.9,2.1l0,0h5.3v-0.2c0-0.8-0.2-1.4-0.7-2C495.3,3229.4,494.6,3229.2,493.9,3229.2z"/>
		<path class="st5" d="M500.1,3237.5v-8.2h-1.5v-0.8h1.5v-1.3c0-0.9,0.2-1.6,0.7-2.1s1.1-0.7,1.9-0.7c0.2,0,0.4,0,0.6,0
			s0.4,0.1,0.6,0.1l-0.1,0.8c-0.1,0-0.3-0.1-0.4-0.1c-0.1,0-0.3,0-0.5,0c-0.5,0-1,0.2-1.2,0.5c-0.3,0.3-0.4,0.8-0.4,1.4v1.3h2.1v0.8
			h-2.1v8.2H500.1z"/>
		<path class="st5" d="M508.7,3233.1c0-1.4,0.3-2.6,0.9-3.4c0.6-0.9,1.5-1.3,2.5-1.3c0.6,0,1.2,0.1,1.6,0.4s0.8,0.6,1.1,1.1v-5.3h1
			v12.9H515l-0.1-1.3c-0.3,0.5-0.7,0.8-1.2,1.1s-1,0.4-1.7,0.4c-1.1,0-1.9-0.4-2.5-1.2c-0.6-0.8-0.9-1.9-0.9-3.2V3233.1z
			 M509.7,3233.2c0,1.1,0.2,2,0.7,2.6c0.4,0.6,1.1,1,2,1c0.6,0,1.2-0.1,1.6-0.4s0.8-0.7,1-1.2v-4.2c-0.2-0.5-0.5-0.9-1-1.3
			s-1-0.5-1.6-0.5c-0.9,0-1.5,0.4-2,1.1c-0.4,0.7-0.7,1.7-0.7,2.8V3233.2z"/>
		<path class="st5" d="M521.9,3237.6c-1.1,0-2.1-0.4-2.8-1.2s-1.1-1.9-1.1-3.2v-0.5c0-1.3,0.4-2.3,1.1-3.2c0.7-0.8,1.6-1.3,2.7-1.3
			c1.1,0,2,0.3,2.6,1s0.9,1.6,0.9,2.8v0.8H519v0.2c0,1,0.3,1.9,0.8,2.5c0.5,0.7,1.2,1,2.1,1c0.6,0,1.1-0.1,1.6-0.3
			c0.4-0.2,0.8-0.4,1.1-0.7l0.4,0.7c-0.3,0.4-0.8,0.6-1.3,0.8S522.6,3237.6,521.9,3237.6z M521.8,3229.2c-0.7,0-1.4,0.3-1.9,0.8
			s-0.8,1.3-0.9,2.1l0,0h5.3v-0.2c0-0.8-0.2-1.4-0.7-2C523.2,3229.4,522.6,3229.2,521.8,3229.2z"/>
		<path class="st5" d="M531.1,3233.1c0-1.4,0.3-2.6,0.9-3.4c0.6-0.9,1.5-1.3,2.5-1.3c0.6,0,1.2,0.1,1.6,0.4s0.8,0.6,1.1,1.1v-5.3h1
			v12.9h-0.9l-0.1-1.3c-0.3,0.5-0.7,0.8-1.2,1.1s-1,0.4-1.7,0.4c-1.1,0-1.9-0.4-2.5-1.2c-0.6-0.8-0.9-1.9-0.9-3.2V3233.1z
			 M532,3233.2c0,1.1,0.2,2,0.7,2.6c0.4,0.6,1.1,1,2,1c0.6,0,1.2-0.1,1.6-0.4s0.8-0.7,1-1.2v-4.2c-0.2-0.5-0.5-0.9-1-1.3
			s-1-0.5-1.6-0.5c-0.9,0-1.5,0.4-2,1.1c-0.4,0.7-0.7,1.7-0.7,2.8V3233.2z"/>
		<path class="st5" d="M544.3,3237.6c-1.1,0-2.1-0.4-2.8-1.2s-1.1-1.9-1.1-3.2v-0.5c0-1.3,0.4-2.3,1.1-3.2c0.7-0.8,1.6-1.3,2.7-1.3
			c1.1,0,2,0.3,2.6,1s0.9,1.6,0.9,2.8v0.8h-6.3v0.2c0,1,0.3,1.9,0.8,2.5c0.5,0.7,1.2,1,2.1,1c0.6,0,1.1-0.1,1.6-0.3
			c0.4-0.2,0.8-0.4,1.1-0.7l0.4,0.7c-0.3,0.4-0.8,0.6-1.3,0.8S545,3237.6,544.3,3237.6z M544.1,3229.2c-0.7,0-1.4,0.3-1.9,0.8
			s-0.8,1.3-0.9,2.1l0,0h5.3v-0.2c0-0.8-0.2-1.4-0.7-2C545.6,3229.4,544.9,3229.2,544.1,3229.2z M545.4,3225h1.2l0,0l-2.1,2.2h-0.9
			L545.4,3225z"/>
		<path class="st5" d="M556.9,3233.2c0,1.3-0.3,2.4-0.9,3.2c-0.6,0.8-1.4,1.2-2.5,1.2c-0.6,0-1.2-0.1-1.7-0.4
			c-0.5-0.2-0.9-0.6-1.2-1v4.7h-1v-12.4h0.8l0.1,1.4c0.3-0.5,0.7-0.9,1.2-1.2c0.5-0.3,1-0.4,1.7-0.4c1.1,0,1.9,0.4,2.5,1.3
			c0.6,0.9,0.9,2,0.9,3.4V3233.2z M555.9,3233c0-1.1-0.2-2.1-0.7-2.8c-0.5-0.7-1.1-1.1-2-1.1c-0.7,0-1.2,0.2-1.6,0.5
			c-0.4,0.3-0.7,0.7-0.9,1.2v4.3c0.2,0.5,0.6,0.9,1,1.2c0.4,0.3,1,0.4,1.6,0.4c0.9,0,1.5-0.3,2-1s0.7-1.5,0.7-2.6V3233z"/>
		<path class="st5" d="M564.8,3237.5c-0.1-0.3-0.1-0.6-0.1-0.8s0-0.4,0-0.7c-0.3,0.5-0.8,0.9-1.3,1.2c-0.6,0.3-1.2,0.5-1.9,0.5
			c-0.9,0-1.6-0.2-2-0.7s-0.7-1.1-0.7-1.9c0-0.8,0.4-1.5,1.1-2s1.7-0.7,2.9-0.7h2v-1.1c0-0.6-0.2-1.1-0.6-1.5s-1-0.5-1.7-0.5
			c-0.7,0-1.3,0.2-1.7,0.5c-0.5,0.3-0.7,0.8-0.7,1.3l-0.9,0l0,0c0-0.7,0.3-1.3,0.9-1.8c0.6-0.5,1.5-0.8,2.5-0.8c1,0,1.8,0.3,2.4,0.8
			c0.6,0.5,0.9,1.2,0.9,2.2v4.4c0,0.3,0,0.6,0.1,0.9s0.1,0.6,0.2,0.9H564.8z M561.5,3236.8c0.7,0,1.3-0.2,1.9-0.5
			c0.5-0.3,0.9-0.8,1.2-1.3v-1.9h-2c-0.9,0-1.6,0.2-2.2,0.6c-0.5,0.4-0.8,0.9-0.8,1.4c0,0.5,0.2,0.9,0.5,1.2
			C560.5,3236.6,561,3236.8,561.5,3236.8z"/>
		<path class="st5" d="M572.4,3229.3l-0.7,0c-0.6,0-1.1,0.2-1.5,0.5c-0.4,0.4-0.7,0.8-0.9,1.4v6.2h-1v-9h0.9l0.1,1.5v0.1
			c0.3-0.6,0.6-1,1-1.3s1-0.5,1.6-0.5c0.1,0,0.2,0,0.4,0c0.1,0,0.2,0,0.3,0.1L572.4,3229.3z"/>
		<path class="st5" d="M575.9,3226.2v2.3h2v0.8h-2v5.9c0,0.6,0.1,1,0.3,1.2c0.2,0.2,0.5,0.4,0.9,0.4c0.2,0,0.3,0,0.5,0
			c0.2,0,0.3,0,0.5-0.1l0.1,0.7c-0.2,0.1-0.4,0.1-0.6,0.2s-0.5,0.1-0.7,0.1c-0.6,0-1.1-0.2-1.5-0.6s-0.5-1-0.5-1.9v-5.9h-1.6v-0.8
			h1.6v-2.3H575.9z"/>
		<path class="st5" d="M583.3,3237.6c-1.1,0-2.1-0.4-2.8-1.2s-1.1-1.9-1.1-3.2v-0.5c0-1.3,0.4-2.3,1.1-3.2c0.7-0.8,1.6-1.3,2.7-1.3
			c1.1,0,2,0.3,2.6,1s0.9,1.6,0.9,2.8v0.8h-6.3v0.2c0,1,0.3,1.9,0.8,2.5c0.5,0.7,1.2,1,2.1,1c0.6,0,1.1-0.1,1.6-0.3
			c0.4-0.2,0.8-0.4,1.1-0.7l0.4,0.7c-0.3,0.4-0.8,0.6-1.3,0.8S584,3237.6,583.3,3237.6z M583.2,3229.2c-0.7,0-1.4,0.3-1.9,0.8
			s-0.8,1.3-0.9,2.1l0,0h5.3v-0.2c0-0.8-0.2-1.4-0.7-2C584.6,3229.4,584,3229.2,583.2,3229.2z"/>
		<path class="st5" d="M589.6,3228.5l0.1,1.5c0.3-0.5,0.7-0.9,1.1-1.2s1.1-0.4,1.7-0.4c0.7,0,1.3,0.2,1.7,0.5s0.8,0.8,1,1.5
			c0.3-0.6,0.7-1.1,1.2-1.5c0.5-0.4,1.1-0.5,1.8-0.5c1,0,1.7,0.3,2.2,1c0.5,0.6,0.8,1.6,0.8,3v5.2h-1v-5.3c0-1.1-0.2-1.9-0.6-2.3
			c-0.4-0.5-0.9-0.7-1.6-0.7c-0.8,0-1.4,0.2-1.8,0.7c-0.4,0.5-0.7,1.1-0.8,1.9c0,0,0,0.1,0,0.2c0,0.1,0,0.1,0,0.2v5.4h-1v-5.3
			c0-1.1-0.2-1.9-0.6-2.3c-0.4-0.5-0.9-0.7-1.6-0.7c-0.7,0-1.3,0.2-1.7,0.5c-0.4,0.4-0.7,0.8-0.9,1.4v6.3h-1v-9H589.6z"/>
		<path class="st5" d="M607.2,3237.6c-1.1,0-2.1-0.4-2.8-1.2s-1.1-1.9-1.1-3.2v-0.5c0-1.3,0.4-2.3,1.1-3.2c0.7-0.8,1.6-1.3,2.7-1.3
			c1.1,0,2,0.3,2.6,1s0.9,1.6,0.9,2.8v0.8h-6.3v0.2c0,1,0.3,1.9,0.8,2.5c0.5,0.7,1.2,1,2.1,1c0.6,0,1.1-0.1,1.6-0.3
			c0.4-0.2,0.8-0.4,1.1-0.7l0.4,0.7c-0.3,0.4-0.8,0.6-1.3,0.8S607.9,3237.6,607.2,3237.6z M607,3229.2c-0.7,0-1.4,0.3-1.9,0.8
			s-0.8,1.3-0.9,2.1l0,0h5.3v-0.2c0-0.8-0.2-1.4-0.7-2C608.4,3229.4,607.8,3229.2,607,3229.2z"/>
		<path class="st5" d="M613.4,3228.5l0.1,1.6c0.3-0.6,0.7-1,1.2-1.3c0.5-0.3,1.1-0.5,1.7-0.5c1,0,1.7,0.3,2.2,0.9
			c0.5,0.6,0.8,1.5,0.8,2.8v5.5h-1v-5.5c0-1-0.2-1.8-0.6-2.2c-0.4-0.4-0.9-0.6-1.6-0.6c-0.7,0-1.3,0.2-1.7,0.6
			c-0.4,0.4-0.8,0.9-1,1.5v6.3h-1v-9H613.4z"/>
		<path class="st5" d="M623.6,3226.2v2.3h2v0.8h-2v5.9c0,0.6,0.1,1,0.3,1.2c0.2,0.2,0.5,0.4,0.9,0.4c0.2,0,0.3,0,0.5,0
			c0.2,0,0.3,0,0.5-0.1l0.1,0.7c-0.2,0.1-0.4,0.1-0.6,0.2s-0.5,0.1-0.7,0.1c-0.6,0-1.1-0.2-1.5-0.6s-0.5-1-0.5-1.9v-5.9H621v-0.8
			h1.6v-2.3H623.6z"/>
	</g>
	<g>
		<path class="st5" d="M349.3,3420.3c0-1.4,0.3-2.6,0.9-3.4c0.6-0.9,1.5-1.3,2.5-1.3c0.6,0,1.2,0.1,1.6,0.4s0.8,0.6,1.1,1.1v-5.3h1
			v12.9h-0.9l-0.1-1.3c-0.3,0.5-0.7,0.8-1.2,1.1c-0.5,0.3-1,0.4-1.7,0.4c-1.1,0-1.9-0.4-2.5-1.2c-0.6-0.8-0.9-1.9-0.9-3.2V3420.3z
			 M350.3,3420.5c0,1.1,0.2,2,0.7,2.6c0.4,0.6,1.1,1,2,1c0.6,0,1.2-0.1,1.6-0.4c0.4-0.3,0.8-0.7,1-1.2v-4.2c-0.2-0.5-0.5-0.9-1-1.3
			c-0.4-0.3-1-0.5-1.6-0.5c-0.9,0-1.5,0.4-2,1.1c-0.4,0.7-0.7,1.7-0.7,2.8V3420.5z"/>
		<path class="st5" d="M362.5,3424.9c-1.1,0-2.1-0.4-2.8-1.2c-0.7-0.8-1.1-1.9-1.1-3.2v-0.5c0-1.3,0.4-2.3,1.1-3.2
			c0.7-0.8,1.6-1.3,2.7-1.3c1.1,0,2,0.3,2.6,1s0.9,1.6,0.9,2.8v0.8h-6.3v0.2c0,1,0.3,1.9,0.8,2.5c0.5,0.7,1.2,1,2.1,1
			c0.6,0,1.1-0.1,1.6-0.3s0.8-0.4,1.1-0.7l0.4,0.7c-0.3,0.4-0.8,0.6-1.3,0.8C363.9,3424.8,363.2,3424.9,362.5,3424.9z M362.4,3416.4
			c-0.7,0-1.4,0.3-1.9,0.8c-0.5,0.6-0.8,1.3-0.9,2.1l0,0h5.3v-0.2c0-0.8-0.2-1.4-0.7-2S363.2,3416.4,362.4,3416.4z"/>
		<path class="st5" d="M379.3,3420.5c0,1.3-0.3,2.4-0.9,3.2s-1.4,1.2-2.5,1.2c-0.6,0-1.2-0.1-1.7-0.4c-0.5-0.2-0.9-0.6-1.2-1v4.7h-1
			v-12.4h0.8l0.1,1.4c0.3-0.5,0.7-0.9,1.2-1.2c0.5-0.3,1-0.4,1.7-0.4c1.1,0,1.9,0.4,2.5,1.3s0.9,2,0.9,3.4V3420.5z M378.3,3420.3
			c0-1.1-0.2-2.1-0.7-2.8c-0.5-0.7-1.1-1.1-2-1.1c-0.7,0-1.2,0.2-1.6,0.5c-0.4,0.3-0.7,0.7-0.9,1.2v4.3c0.2,0.5,0.6,0.9,1,1.2
			c0.4,0.3,1,0.4,1.6,0.4c0.9,0,1.5-0.3,2-1c0.5-0.7,0.7-1.5,0.7-2.6V3420.3z"/>
		<path class="st5" d="M385.6,3416.6l-0.7,0c-0.6,0-1.1,0.2-1.5,0.5c-0.4,0.4-0.7,0.8-0.9,1.4v6.2h-1v-9h0.9l0.1,1.5v0.1
			c0.3-0.6,0.6-1,1-1.3s1-0.5,1.6-0.5c0.1,0,0.3,0,0.4,0c0.1,0,0.2,0,0.3,0.1L385.6,3416.6z"/>
		<path class="st5" d="M386.6,3420.1c0-1.3,0.4-2.4,1.1-3.3c0.7-0.8,1.7-1.3,2.9-1.3c1.2,0,2.2,0.4,2.9,1.3c0.7,0.8,1.1,1.9,1.1,3.3
			v0.3c0,1.3-0.4,2.4-1.1,3.3c-0.7,0.8-1.7,1.3-2.9,1.3c-1.2,0-2.2-0.4-2.9-1.3s-1.1-1.9-1.1-3.3V3420.1z M387.6,3420.4
			c0,1,0.3,1.9,0.8,2.6c0.5,0.7,1.3,1.1,2.2,1.1c0.9,0,1.7-0.4,2.2-1.1c0.5-0.7,0.8-1.6,0.8-2.6v-0.3c0-1-0.3-1.9-0.8-2.6
			c-0.5-0.7-1.3-1.1-2.2-1.1s-1.7,0.4-2.2,1.1c-0.5,0.7-0.8,1.6-0.8,2.6V3420.4z"/>
		<path class="st5" d="M397.8,3415.7v9.7c0,0.9-0.2,1.6-0.7,2.1s-1.1,0.8-1.8,0.8c-0.2,0-0.3,0-0.5,0c-0.1,0-0.3-0.1-0.5-0.1
			l0.1-0.8c0.1,0,0.2,0.1,0.4,0.1c0.2,0,0.3,0,0.4,0c0.5,0,0.9-0.2,1.2-0.5c0.3-0.3,0.4-0.8,0.4-1.5v-9.7H397.8z M397.7,3413.1h-1
			v-1.4h1V3413.1z"/>
		<path class="st5" d="M404,3424.9c-1.1,0-2.1-0.4-2.8-1.2c-0.7-0.8-1.1-1.9-1.1-3.2v-0.5c0-1.3,0.4-2.3,1.1-3.2
			c0.7-0.8,1.6-1.3,2.7-1.3c1.1,0,2,0.3,2.6,1s0.9,1.6,0.9,2.8v0.8h-6.3v0.2c0,1,0.3,1.9,0.8,2.5c0.5,0.7,1.2,1,2.1,1
			c0.6,0,1.1-0.1,1.6-0.3s0.8-0.4,1.1-0.7l0.4,0.7c-0.3,0.4-0.8,0.6-1.3,0.8C405.3,3424.8,404.7,3424.9,404,3424.9z M403.9,3416.4
			c-0.7,0-1.4,0.3-1.9,0.8c-0.5,0.6-0.8,1.3-0.9,2.1l0,0h5.3v-0.2c0-0.8-0.2-1.4-0.7-2S404.6,3416.4,403.9,3416.4z"/>
		<path class="st5" d="M410.9,3413.4v2.3h2v0.8h-2v5.9c0,0.6,0.1,1,0.3,1.2c0.2,0.2,0.5,0.4,0.9,0.4c0.2,0,0.3,0,0.5,0
			c0.2,0,0.3,0,0.5-0.1l0.1,0.7c-0.2,0.1-0.4,0.1-0.6,0.2s-0.5,0.1-0.7,0.1c-0.6,0-1.1-0.2-1.5-0.6c-0.4-0.4-0.5-1-0.5-1.9v-5.9
			h-1.6v-0.8h1.6v-2.3H410.9z"/>
	</g>
</g>
</svg>
